<?xml version="1.0" encoding="UTF-8"?>
<svg xmlns="http://www.w3.org/2000/svg" xmlns:xlink="http://www.w3.org/1999/xlink" width="508pt" height="400pt" viewBox="0 0 508 400" version="1.1">
<g id="surface1">
<path style=" stroke:none;fill-rule:nonzero;fill:rgb(83.921569%,90.980392%,96.470588%);fill-opacity:1;" d="M 97.484375 25.914062 C 97.484375 25.914062 16.402344 4.175781 26.523438 89.851562 C 36.644531 175.53125 -22.710938 229.242188 9.878906 270.808594 C 42.46875 312.375 71.390625 367.355469 93.144531 382.671875 C 114.894531 397.988281 226.417969 418.476562 295.878906 367.328125 C 365.339844 316.179688 375.769531 292.15625 397.792969 247.121094 C 399.367188 243.90625 415.042969 211.222656 411.773438 163.226562 C 408.976562 122.210938 407.113281 112.886719 369.738281 69.402344 C 327.316406 19.996094 250.996094 -13.722656 230.714844 5.464844 C 210.433594 24.648438 207.542969 46.386719 178.578125 50.207031 C 149.613281 54.03125 97.484375 25.914062 97.484375 25.914062 Z M 97.484375 25.914062 "/>
<path style=" stroke:none;fill-rule:nonzero;fill:rgb(92.156863%,95.686275%,98.431373%);fill-opacity:1;" d="M 411.773438 163.226562 C 408.976562 122.210938 407.113281 112.886719 369.738281 69.402344 C 327.3125 19.996094 250.992188 -13.722656 230.714844 5.464844 C 210.433594 24.648438 207.542969 46.386719 178.578125 50.207031 C 149.613281 54.03125 97.496094 25.914062 97.496094 25.914062 C 97.496094 25.914062 16.410156 4.175781 26.535156 89.851562 C 36.65625 175.53125 -22.714844 229.242188 9.878906 270.808594 C 11.699219 273.128906 13.507812 275.484375 15.304688 277.882812 L 382.253906 277.882812 C 387.445312 268.449219 392.246094 258.449219 397.792969 247.121094 C 399.367188 243.90625 415.042969 211.222656 411.773438 163.226562 Z M 411.773438 163.226562 "/>
<path style=" stroke:none;fill-rule:nonzero;fill:rgb(100%,100%,100%);fill-opacity:1;" d="M 228.757812 201.472656 L 105.539062 201.472656 L 105.539062 277.679688 L 228.757812 277.679688 Z M 228.757812 201.472656 "/>
<path style=" stroke:none;fill-rule:nonzero;fill:rgb(100%,100%,100%);fill-opacity:1;" d="M 228.757812 188.972656 L 165.660156 188.972656 L 165.660156 222.316406 L 228.757812 222.316406 Z M 228.757812 188.972656 "/>
<path style=" stroke:none;fill-rule:nonzero;fill:rgb(100%,100%,100%);fill-opacity:1;" d="M 121.019531 172.902344 L 107.925781 172.902344 L 107.925781 213.984375 L 121.019531 213.984375 Z M 121.019531 172.902344 "/>
<path style=" stroke:none;fill-rule:nonzero;fill:rgb(100%,100%,100%);fill-opacity:1;" d="M 266.855469 209.21875 L 211.496094 209.21875 L 211.496094 277.6875 L 266.855469 277.6875 Z M 266.855469 209.21875 "/>
<path style=" stroke:none;fill-rule:nonzero;fill:rgb(100%,100%,100%);fill-opacity:1;" d="M 315.078125 238.386719 L 249.597656 238.386719 L 249.597656 277.679688 L 315.078125 277.679688 Z M 315.078125 238.386719 "/>
<path style=" stroke:none;fill-rule:nonzero;fill:rgb(100%,100%,100%);fill-opacity:1;" d="M 315.070312 221.71875 L 287.6875 221.71875 L 287.6875 277.6875 L 315.070312 277.6875 Z M 315.070312 221.71875 "/>
<path style=" stroke:none;fill-rule:nonzero;fill:rgb(100%,100%,100%);fill-opacity:1;" d="M 344.835938 256.246094 L 302.570312 256.246094 L 302.570312 277.679688 L 344.835938 277.679688 Z M 344.835938 256.246094 "/>
<path style=" stroke:none;fill-rule:nonzero;fill:rgb(100%,100%,100%);fill-opacity:1;" d="M 373.410156 225.289062 L 336.503906 225.289062 L 336.503906 277.679688 L 373.410156 277.679688 Z M 373.410156 225.289062 "/>
<path style=" stroke:none;fill-rule:nonzero;fill:rgb(100%,100%,100%);fill-opacity:1;" d="M 133.515625 171.707031 L 94.828125 171.707031 L 94.828125 174.679688 L 133.515625 174.679688 Z M 133.515625 171.707031 "/>
<path style=" stroke:none;fill-rule:nonzero;fill:rgb(100%,100%,100%);fill-opacity:1;" d="M 130.542969 168.136719 L 97.804688 168.136719 L 97.804688 174.691406 L 130.542969 174.691406 Z M 130.542969 168.136719 "/>
<path style="fill:none;stroke-width:1;stroke-linecap:butt;stroke-linejoin:miter;stroke:rgb(100%,100%,100%);stroke-opacity:1;stroke-miterlimit:10;" d="M 136.144377 202.226953 L 126.657173 202.226953 L 126.657173 218.926465 L 136.144377 218.926465 Z M 136.144377 202.226953 " transform="matrix(0.783951,0,0,0.784314,0,0)"/>
<path style="fill:none;stroke-width:1;stroke-linecap:butt;stroke-linejoin:miter;stroke:rgb(100%,100%,100%);stroke-opacity:1;stroke-miterlimit:10;" d="M 145.631582 202.226953 L 136.144377 202.226953 L 136.144377 218.926465 L 145.631582 218.926465 Z M 145.631582 202.226953 " transform="matrix(0.783951,0,0,0.784314,0,0)"/>
<path style="fill:none;stroke-width:1;stroke-linecap:butt;stroke-linejoin:miter;stroke:rgb(100%,100%,100%);stroke-opacity:1;stroke-miterlimit:10;" d="M 155.128752 202.226953 L 145.646531 202.226953 L 145.646531 218.926465 L 155.128752 218.926465 Z M 155.128752 202.226953 " transform="matrix(0.783951,0,0,0.784314,0,0)"/>
<path style="fill:none;stroke-width:1;stroke-linecap:butt;stroke-linejoin:miter;stroke:rgb(100%,100%,100%);stroke-opacity:1;stroke-miterlimit:10;" d="M 164.615957 202.226953 L 155.128752 202.226953 L 155.128752 218.926465 L 164.615957 218.926465 Z M 164.615957 202.226953 " transform="matrix(0.783951,0,0,0.784314,0,0)"/>
<path style=" stroke:none;fill-rule:nonzero;fill:rgb(100%,100%,100%);fill-opacity:1;" d="M 133.515625 157.417969 L 94.828125 157.417969 L 94.828125 159.796875 L 133.515625 159.796875 Z M 133.515625 157.417969 "/>
<path style=" stroke:none;fill-rule:nonzero;fill:rgb(100%,100%,100%);fill-opacity:1;" d="M 128.167969 152.652344 L 100.1875 152.652344 L 100.1875 159.792969 L 128.167969 159.792969 Z M 128.167969 152.652344 "/>
<path style=" stroke:none;fill-rule:nonzero;fill:rgb(100%,100%,100%);fill-opacity:1;" d="M 122.203125 149.082031 L 105.539062 149.082031 L 105.539062 157.417969 L 122.203125 157.417969 Z M 122.203125 149.082031 "/>
<path style=" stroke:none;fill-rule:nonzero;fill:rgb(100%,100%,100%);fill-opacity:1;" d="M 115.660156 138.363281 L 112.6875 138.363281 L 112.6875 157.417969 L 115.660156 157.417969 Z M 115.660156 138.363281 "/>
<path style=" stroke:none;fill-rule:nonzero;fill:rgb(100%,100%,100%);fill-opacity:1;" d="M 426.675781 261.90625 L 319.53125 261.90625 L 319.53125 277.976562 L 426.675781 277.976562 Z M 426.675781 261.90625 "/>
<path style=" stroke:none;fill-rule:nonzero;fill:rgb(100%,100%,100%);fill-opacity:1;" d="M 156.433594 215.089844 L 1.695312 215.089844 L 1.695312 277.863281 L 156.433594 277.863281 Z M 156.433594 215.089844 "/>
<path style=" stroke:none;fill-rule:nonzero;fill:rgb(46.27451%,61.176471%,81.568627%);fill-opacity:1;" d="M 225.375 278.183594 C 229.203125 275.980469 234.125 271.589844 232.464844 264.480469 C 230.808594 257.367188 222.632812 254.085938 206.734375 240.960938 C 190.832031 227.835938 174.421875 226.214844 174.421875 226.214844 L 30.980469 225.074219 L 8.9375 203.355469 C 0.457031 230.164062 -4.445312 252.277344 10.800781 271.730469 C 12.621094 274.050781 14.429688 276.40625 16.226562 278.808594 L 222.625 278.808594 C 223.566406 278.738281 224.496094 278.527344 225.375 278.183594 Z M 225.375 278.183594 "/>
<path style=" stroke:none;fill-rule:evenodd;fill:rgb(100%,100%,100%);fill-opacity:1;" d="M 177.359375 239.839844 L 202.261719 240.390625 L 217.863281 252.433594 L 188.847656 252.433594 C 188.847656 252.433594 174.113281 251.886719 177.359375 239.839844 Z M 177.359375 239.839844 "/>
<path style=" stroke:none;fill-rule:nonzero;fill:rgb(100%,100%,100%);fill-opacity:1;" d="M 17.875 241.210938 L 16.644531 241.210938 C 14.417969 241.210938 12.609375 243.019531 12.609375 245.25 L 12.609375 247.027344 C 12.609375 249.257812 14.417969 251.066406 16.644531 251.066406 L 17.875 251.066406 C 20.105469 251.066406 21.910156 249.257812 21.910156 247.027344 L 21.910156 245.25 C 21.910156 243.019531 20.105469 241.210938 17.875 241.210938 Z M 17.875 241.210938 "/>
<path style=" stroke:none;fill-rule:nonzero;fill:rgb(100%,100%,100%);fill-opacity:1;" d="M 38.675781 241.210938 L 37.449219 241.210938 C 35.21875 241.210938 33.410156 243.019531 33.410156 245.25 L 33.410156 247.027344 C 33.410156 249.257812 35.21875 251.066406 37.449219 251.066406 L 38.675781 251.066406 C 40.90625 251.066406 42.714844 249.257812 42.714844 247.027344 L 42.714844 245.25 C 42.714844 243.019531 40.90625 241.210938 38.675781 241.210938 Z M 38.675781 241.210938 "/>
<path style=" stroke:none;fill-rule:nonzero;fill:rgb(100%,100%,100%);fill-opacity:1;" d="M 58.378906 241.210938 L 57.148438 241.210938 C 54.921875 241.210938 53.113281 243.019531 53.113281 245.25 L 53.113281 247.027344 C 53.113281 249.257812 54.921875 251.066406 57.148438 251.066406 L 58.378906 251.066406 C 60.609375 251.066406 62.414062 249.257812 62.414062 247.027344 L 62.414062 245.25 C 62.414062 243.019531 60.609375 241.210938 58.378906 241.210938 Z M 58.378906 241.210938 "/>
<path style=" stroke:none;fill-rule:nonzero;fill:rgb(100%,100%,100%);fill-opacity:1;" d="M 78.632812 241.210938 L 77.402344 241.210938 C 75.171875 241.210938 73.367188 243.019531 73.367188 245.25 L 73.367188 247.027344 C 73.367188 249.257812 75.171875 251.066406 77.402344 251.066406 L 78.632812 251.066406 C 80.859375 251.066406 82.667969 249.257812 82.667969 247.027344 L 82.667969 245.25 C 82.667969 243.019531 80.859375 241.210938 78.632812 241.210938 Z M 78.632812 241.210938 "/>
<path style=" stroke:none;fill-rule:nonzero;fill:rgb(100%,100%,100%);fill-opacity:1;" d="M 98.882812 241.210938 L 97.652344 241.210938 C 95.425781 241.210938 93.617188 243.019531 93.617188 245.25 L 93.617188 247.027344 C 93.617188 249.257812 95.425781 251.066406 97.652344 251.066406 L 98.882812 251.066406 C 101.113281 251.066406 102.917969 249.257812 102.917969 247.027344 L 102.917969 245.25 C 102.917969 243.019531 101.113281 241.210938 98.882812 241.210938 Z M 98.882812 241.210938 "/>
<path style=" stroke:none;fill-rule:nonzero;fill:rgb(100%,100%,100%);fill-opacity:1;" d="M 119.125 241.210938 L 117.898438 241.210938 C 115.667969 241.210938 113.859375 243.019531 113.859375 245.25 L 113.859375 247.027344 C 113.859375 249.257812 115.667969 251.066406 117.898438 251.066406 L 119.125 251.066406 C 121.355469 251.066406 123.164062 249.257812 123.164062 247.027344 L 123.164062 245.25 C 123.164062 243.019531 121.355469 241.210938 119.125 241.210938 Z M 119.125 241.210938 "/>
<path style=" stroke:none;fill-rule:nonzero;fill:rgb(100%,100%,100%);fill-opacity:1;" d="M 138.828125 241.210938 L 137.597656 241.210938 C 135.371094 241.210938 133.5625 243.019531 133.5625 245.25 L 133.5625 247.027344 C 133.5625 249.257812 135.371094 251.066406 137.597656 251.066406 L 138.828125 251.066406 C 141.058594 251.066406 142.863281 249.257812 142.863281 247.027344 L 142.863281 245.25 C 142.863281 243.019531 141.058594 241.210938 138.828125 241.210938 Z M 138.828125 241.210938 "/>
<path style=" stroke:none;fill-rule:nonzero;fill:rgb(100%,100%,100%);fill-opacity:1;" d="M 159.082031 241.210938 L 157.851562 241.210938 C 155.621094 241.210938 153.816406 243.019531 153.816406 245.25 L 153.816406 247.027344 C 153.816406 249.257812 155.621094 251.066406 157.851562 251.066406 L 159.082031 251.066406 C 161.308594 251.066406 163.117188 249.257812 163.117188 247.027344 L 163.117188 245.25 C 163.117188 243.019531 161.308594 241.210938 159.082031 241.210938 Z M 159.082031 241.210938 "/>
<path style=" stroke:none;fill-rule:nonzero;fill:rgb(83.921569%,90.980392%,96.470588%);fill-opacity:1;" d="M 408.191406 131.53125 L 331.621094 131.53125 L 331.621094 34.917969 C 330.6875 34.25 329.757812 33.585938 328.824219 32.933594 L 328.824219 131.53125 L 244.945312 131.53125 L 244.945312 0.09375 C 244.015625 0.167969 243.082031 0.261719 242.148438 0.402344 L 242.148438 131.53125 L 158.269531 131.53125 L 158.269531 49.015625 C 157.34375 48.835938 156.414062 48.640625 155.476562 48.4375 L 155.476562 131.53125 L 71.59375 131.53125 L 71.59375 23.601562 C 70.664062 23.660156 69.730469 23.722656 68.800781 23.816406 L 68.800781 131.53125 L 26.382812 131.53125 C 26.273438 132.46875 26.152344 133.402344 26.019531 134.328125 L 68.800781 134.328125 L 68.800781 277.882812 L 71.59375 277.882812 L 71.59375 134.328125 L 155.476562 134.328125 L 155.476562 277.882812 L 158.269531 277.882812 L 158.269531 134.328125 L 242.148438 134.328125 L 242.148438 277.882812 L 244.945312 277.882812 L 244.945312 134.328125 L 328.824219 134.328125 L 328.824219 277.882812 L 331.621094 277.882812 L 331.621094 134.328125 L 408.753906 134.328125 C 408.578125 133.382812 408.390625 132.449219 408.191406 131.53125 Z M 408.191406 131.53125 "/>
<path style=" stroke:none;fill-rule:nonzero;fill:rgb(83.921569%,90.980392%,96.470588%);fill-opacity:1;" d="M 193.6875 92.675781 L 196.101562 89.183594 L 170.070312 70.539062 C 170.070312 70.539062 166.992188 67.742188 164.644531 69.605469 C 164.644531 69.605469 163.3125 70.4375 165.671875 72.746094 C 170.65625 77.6875 193.6875 92.675781 193.6875 92.675781 Z M 193.6875 92.675781 "/>
<path style=" stroke:none;fill-rule:nonzero;fill:rgb(83.921569%,90.980392%,96.470588%);fill-opacity:1;" d="M 176.296875 79.535156 L 177.117188 100.769531 C 177.117188 100.769531 177.359375 103.0625 178.980469 103.9375 C 179.773438 100.378906 180.378906 92.902344 181.777344 90.671875 C 181.777344 90.671875 186.007812 82.347656 189.875 79.402344 C 193.742188 76.457031 201.886719 72.355469 201.886719 72.355469 C 201.886719 72.355469 201.46875 70.546875 198.027344 70.902344 C 194.589844 71.257812 176.398438 77.902344 176.398438 77.902344 Z M 176.296875 79.535156 "/>
<path style=" stroke:none;fill-rule:nonzero;fill:rgb(83.921569%,90.980392%,96.470588%);fill-opacity:1;" d="M 190.582031 89.871094 C 190.582031 89.871094 191.355469 95.121094 191.625 96.601562 C 191.898438 98.085938 192.613281 100.554688 193.910156 100.769531 C 194.972656 98.691406 196.035156 92.203125 196.035156 92.203125 L 203.882812 87.449219 C 203.882812 87.449219 202.167969 85.425781 197.359375 86.386719 C 195.050781 86.78125 192.785156 87.40625 190.601562 88.25 Z M 190.582031 89.871094 "/>
<path style=" stroke:none;fill-rule:nonzero;fill:rgb(83.921569%,90.980392%,96.470588%);fill-opacity:1;" d="M 174.542969 83.71875 L 173.386719 85.578125 L 177.410156 88.078125 L 178.566406 86.21875 Z M 174.542969 83.71875 "/>
<path style=" stroke:none;fill-rule:nonzero;fill:rgb(83.921569%,90.980392%,96.470588%);fill-opacity:1;" d="M 182.78125 72.648438 L 181.621094 74.507812 L 185.648438 77.019531 L 186.808594 75.15625 Z M 182.78125 72.648438 "/>
<path style=" stroke:none;fill-rule:nonzero;fill:rgb(71.764706%,80%,91.372549%);fill-opacity:1;" d="M 138.699219 63.480469 L 14.742188 63.480469 L 14.742188 94.242188 L 138.699219 94.242188 Z M 138.699219 63.480469 "/>
<path style=" stroke:none;fill-rule:nonzero;fill:rgb(71.764706%,80%,91.372549%);fill-opacity:1;" d="M 38.976562 39.246094 L 36.179688 39.246094 L 36.179688 75.601562 L 38.976562 75.601562 Z M 38.976562 39.246094 "/>
<path style=" stroke:none;fill-rule:nonzero;fill:rgb(71.764706%,80%,91.372549%);fill-opacity:1;" d="M 116.332031 34.585938 L 113.535156 34.585938 L 113.535156 74.667969 L 116.332031 74.667969 Z M 116.332031 34.585938 "/>
<path style=" stroke:none;fill-rule:nonzero;fill:rgb(83.921569%,90.980392%,96.470588%);fill-opacity:1;" d="M 132.175781 67.210938 L 20.335938 67.210938 L 20.335938 89.582031 L 132.175781 89.582031 Z M 132.175781 67.210938 "/>
<path style=" stroke:none;fill-rule:nonzero;fill:rgb(10.980392%,57.647059%,29.803922%);fill-opacity:1;" d="M 37.382812 75.480469 L 37.382812 72.328125 L 29.191406 78.621094 L 37.382812 84.921875 L 37.382812 81.769531 L 49.226562 81.769531 L 49.226562 75.480469 Z M 37.382812 75.480469 "/>
<path style=" stroke:none;fill-rule:nonzero;fill:rgb(10.980392%,57.647059%,29.803922%);fill-opacity:1;" d="M 115.585938 75.480469 L 115.585938 72.328125 L 123.785156 78.621094 L 115.585938 84.921875 L 115.585938 81.769531 L 103.75 81.769531 L 103.75 75.480469 Z M 115.585938 75.480469 "/>
<path style=" stroke:none;fill-rule:nonzero;fill:rgb(92.156863%,95.686275%,98.431373%);fill-opacity:1;" d="M 121.921875 359.917969 C 127.070312 359.917969 131.242188 358.664062 131.242188 357.121094 C 131.242188 355.574219 127.070312 354.324219 121.921875 354.324219 C 116.777344 354.324219 112.601562 355.574219 112.601562 357.121094 C 112.601562 358.664062 116.777344 359.917969 121.921875 359.917969 Z M 121.921875 359.917969 "/>
<path style=" stroke:none;fill-rule:nonzero;fill:rgb(21.960784%,29.019608%,47.45098%);fill-opacity:1;" d="M 144.804688 305.816406 L 147.730469 307.402344 L 196.527344 217.210938 L 193.601562 215.628906 Z M 144.804688 305.816406 "/>
<path style=" stroke:none;fill-rule:nonzero;fill:rgb(1.176471%,20.392157%,41.568627%);fill-opacity:1;" d="M 129.207031 359.476562 C 133.242188 359.191406 136.285156 355.6875 136 351.652344 C 135.714844 347.617188 132.210938 344.574219 128.175781 344.859375 C 124.140625 345.144531 121.101562 348.644531 121.382812 352.683594 C 121.667969 356.71875 125.171875 359.761719 129.207031 359.476562 Z M 129.207031 359.476562 "/>
<path style=" stroke:none;fill-rule:nonzero;fill:rgb(94.509804%,63.921569%,42.352941%);fill-opacity:1;" d="M 99.804688 337.386719 L 123.175781 350.457031 C 128.566406 353.472656 135.378906 351.542969 138.394531 346.152344 L 174.222656 282.050781 C 177.238281 276.660156 175.3125 269.84375 169.921875 266.828125 L 146.550781 253.761719 C 141.160156 250.746094 134.34375 252.671875 131.332031 258.0625 L 95.5 322.164062 C 92.484375 327.554688 94.410156 334.371094 99.804688 337.386719 Z M 99.804688 337.386719 "/>
<path style=" stroke:none;fill-rule:nonzero;fill:rgb(91.764706%,98.039216%,99.607843%);fill-opacity:1;" d="M 114.753906 346.089844 L 115.8125 346.703125 L 163.984375 263.417969 L 162.925781 262.804688 Z M 114.753906 346.089844 "/>
<path style=" stroke:none;fill-rule:nonzero;fill:rgb(91.764706%,98.039216%,99.607843%);fill-opacity:1;" d="M 132.820312 313.40625 L 135.375 314.8125 C 136.503906 315.433594 137.921875 315.023438 138.542969 313.898438 L 146.773438 298.957031 C 147.394531 297.832031 146.984375 296.414062 145.855469 295.792969 L 143.300781 294.382812 C 142.175781 293.761719 140.757812 294.171875 140.136719 295.300781 L 131.90625 310.238281 C 131.285156 311.367188 131.695312 312.785156 132.820312 313.40625 Z M 132.820312 313.40625 "/>
<path style=" stroke:none;fill-rule:nonzero;fill:rgb(100%,100%,100%);fill-opacity:1;" d="M 350.261719 138.054688 C 362.375 117.195312 376.289062 89.9375 388.378906 69.074219 C 388.378906 106.988281 388.472656 143.023438 388.472656 180.9375 C 388.472656 180.9375 351.191406 138.054688 350.261719 138.054688 Z M 350.261719 138.054688 "/>
<path style=" stroke:none;fill-rule:nonzero;fill:rgb(83.921569%,90.980392%,96.470588%);fill-opacity:1;" d="M 508 181.402344 L 388.707031 181.402344 L 388.707031 68.609375 L 508 68.609375 Z M 508 181.402344 "/>
<path style=" stroke:none;fill-rule:nonzero;fill:rgb(89.803922%,18.823529%,15.686275%);fill-opacity:1;" d="M 461.839844 110.089844 C 461.839844 110.339844 461.742188 110.574219 461.566406 110.75 C 461.390625 110.925781 461.152344 111.023438 460.90625 111.023438 L 424.820312 111.023438 C 424.5625 111.023438 424.316406 110.921875 424.132812 110.738281 C 423.953125 110.558594 423.851562 110.3125 423.851562 110.054688 C 423.851562 109.796875 423.953125 109.550781 424.132812 109.367188 C 424.316406 109.1875 424.5625 109.082031 424.820312 109.082031 L 460.867188 109.082031 C 461 109.078125 461.132812 109.101562 461.253906 109.148438 C 461.378906 109.199219 461.488281 109.273438 461.582031 109.367188 C 461.671875 109.464844 461.742188 109.578125 461.789062 109.703125 C 461.832031 109.828125 461.847656 109.960938 461.839844 110.089844 Z M 433.664062 83.214844 L 437.28125 85.6875 L 446.199219 82.144531 L 436.9375 80.476562 C 436.757812 80.441406 436.574219 80.460938 436.402344 80.53125 L 433.832031 81.546875 C 433.65625 81.601562 433.5 81.703125 433.382812 81.84375 C 433.265625 81.984375 433.195312 82.15625 433.175781 82.339844 C 433.15625 82.519531 433.1875 82.703125 433.273438 82.867188 C 433.355469 83.03125 433.484375 83.164062 433.644531 83.253906 Z M 459.667969 80.53125 C 459.445312 80.074219 459.097656 79.691406 458.664062 79.421875 C 458.230469 79.15625 457.734375 79.015625 457.226562 79.019531 C 456.875 79.019531 456.527344 79.085938 456.199219 79.21875 L 448 82.46875 L 438.25 86.339844 L 428.257812 90.308594 L 425.902344 89.078125 C 425.433594 88.84375 424.925781 88.707031 424.402344 88.679688 C 423.882812 88.652344 423.359375 88.734375 422.871094 88.921875 C 422.722656 88.96875 422.589844 89.054688 422.480469 89.171875 C 422.375 89.285156 422.296875 89.425781 422.261719 89.582031 C 422.222656 89.734375 422.222656 89.890625 422.261719 90.042969 C 422.304688 90.195312 422.382812 90.335938 422.488281 90.449219 L 426.03125 94.652344 L 425.277344 97.449219 C 425.210938 97.625 425.199219 97.816406 425.246094 98 C 425.289062 98.183594 425.390625 98.347656 425.53125 98.46875 C 425.667969 98.59375 425.84375 98.675781 426.03125 98.699219 C 426.214844 98.722656 426.40625 98.691406 426.570312 98.605469 L 427.820312 98.113281 C 427.980469 98.050781 428.117188 97.949219 428.222656 97.8125 L 430.253906 95.277344 L 440.125 91.363281 L 440.535156 101.09375 C 440.53125 101.253906 440.570312 101.410156 440.644531 101.550781 C 440.71875 101.691406 440.828125 101.808594 440.960938 101.894531 C 441.09375 101.980469 441.246094 102.03125 441.40625 102.042969 C 441.5625 102.050781 441.722656 102.019531 441.867188 101.953125 L 444.664062 100.851562 C 444.785156 100.804688 444.898438 100.730469 444.992188 100.636719 C 445.085938 100.542969 445.15625 100.429688 445.203125 100.304688 L 450.339844 87.308594 L 458.25 84.167969 C 458.59375 84.03125 458.902344 83.828125 459.164062 83.570312 C 459.421875 83.308594 459.628906 83 459.761719 82.65625 C 459.894531 82.316406 459.957031 81.949219 459.945312 81.582031 C 459.933594 81.214844 459.84375 80.851562 459.6875 80.523438 Z M 459.667969 80.53125 "/>
<path style=" stroke:none;fill-rule:nonzero;fill:rgb(100%,100%,100%);fill-opacity:1;" d="M 463.285156 116.691406 C 459.800781 116.550781 456.5 115.105469 454.039062 112.640625 C 451.574219 110.179688 450.125 106.878906 449.984375 103.398438 L 449.984375 102.148438 C 450.125 98.667969 451.570312 95.371094 454.035156 92.90625 C 456.496094 90.445312 459.792969 88.996094 463.273438 88.855469 L 464.523438 88.855469 C 468.003906 88.996094 471.300781 90.445312 473.761719 92.90625 C 476.226562 95.371094 477.671875 98.667969 477.8125 102.148438 L 477.8125 103.398438 C 477.671875 106.878906 476.226562 110.175781 473.761719 112.640625 C 471.300781 115.101562 468.003906 116.546875 464.523438 116.691406 L 463.273438 116.691406 Z M 463.285156 116.691406 "/>
<path style=" stroke:none;fill-rule:nonzero;fill:rgb(1.176471%,20.392157%,41.568627%);fill-opacity:1;" d="M 463.917969 88.195312 C 461.035156 88.195312 458.21875 89.046875 455.824219 90.648438 C 453.429688 92.25 451.5625 94.527344 450.457031 97.1875 C 449.355469 99.851562 449.066406 102.78125 449.628906 105.605469 C 450.191406 108.433594 451.578125 111.027344 453.617188 113.066406 C 455.652344 115.105469 458.25 116.492188 461.074219 117.054688 C 463.902344 117.617188 466.828125 117.328125 469.492188 116.226562 C 472.152344 115.121094 474.429688 113.253906 476.027344 110.859375 C 477.628906 108.460938 478.484375 105.644531 478.484375 102.765625 C 478.480469 98.902344 476.941406 95.199219 474.210938 92.464844 C 471.480469 89.734375 467.777344 88.199219 463.917969 88.195312 Z M 474.652344 103.386719 L 477.214844 103.386719 C 477.058594 106.699219 475.671875 109.832031 473.328125 112.171875 C 470.984375 114.515625 467.851562 115.902344 464.542969 116.058594 L 464.542969 113.492188 C 464.542969 113.410156 464.523438 113.332031 464.492188 113.253906 C 464.460938 113.179688 464.417969 113.109375 464.359375 113.050781 C 464.300781 112.992188 464.230469 112.949219 464.15625 112.917969 C 464.078125 112.882812 464 112.867188 463.917969 112.867188 C 463.835938 112.867188 463.753906 112.882812 463.679688 112.917969 C 463.601562 112.949219 463.535156 112.992188 463.476562 113.050781 C 463.417969 113.109375 463.371094 113.179688 463.339844 113.253906 C 463.308594 113.332031 463.292969 113.410156 463.292969 113.492188 L 463.292969 116.058594 C 459.984375 115.898438 456.855469 114.511719 454.511719 112.171875 C 452.171875 109.828125 450.785156 106.695312 450.625 103.386719 L 453.191406 103.386719 C 453.355469 103.386719 453.515625 103.324219 453.632812 103.207031 C 453.75 103.089844 453.8125 102.929688 453.8125 102.765625 C 453.8125 102.597656 453.75 102.4375 453.632812 102.324219 C 453.515625 102.207031 453.355469 102.140625 453.191406 102.140625 L 450.625 102.140625 C 450.785156 98.832031 452.171875 95.699219 454.511719 93.359375 C 456.855469 91.015625 459.984375 89.628906 463.292969 89.472656 L 463.292969 92.035156 C 463.292969 92.117188 463.308594 92.199219 463.339844 92.273438 C 463.371094 92.347656 463.417969 92.417969 463.476562 92.476562 C 463.535156 92.535156 463.601562 92.582031 463.679688 92.613281 C 463.753906 92.644531 463.835938 92.660156 463.917969 92.660156 C 464 92.660156 464.078125 92.644531 464.15625 92.613281 C 464.230469 92.582031 464.300781 92.535156 464.359375 92.476562 C 464.417969 92.417969 464.460938 92.347656 464.492188 92.273438 C 464.523438 92.199219 464.542969 92.117188 464.542969 92.035156 L 464.542969 89.472656 C 467.847656 89.628906 470.980469 91.015625 473.320312 93.359375 C 475.664062 95.699219 477.050781 98.832031 477.207031 102.140625 L 474.644531 102.140625 C 474.476562 102.140625 474.320312 102.207031 474.203125 102.324219 C 474.085938 102.4375 474.019531 102.597656 474.019531 102.765625 C 474.019531 102.929688 474.085938 103.089844 474.203125 103.207031 C 474.320312 103.324219 474.476562 103.386719 474.644531 103.386719 Z M 474.652344 103.386719 "/>
<path style=" stroke:none;fill-rule:nonzero;fill:rgb(1.176471%,20.392157%,41.568627%);fill-opacity:1;" d="M 464.539062 102.511719 L 464.539062 96.203125 C 464.539062 96.121094 464.523438 96.039062 464.492188 95.960938 C 464.460938 95.886719 464.417969 95.816406 464.359375 95.761719 C 464.300781 95.703125 464.230469 95.65625 464.15625 95.625 C 464.078125 95.59375 464 95.578125 463.917969 95.578125 C 463.835938 95.578125 463.753906 95.59375 463.679688 95.625 C 463.601562 95.65625 463.535156 95.703125 463.476562 95.761719 C 463.417969 95.816406 463.371094 95.886719 463.339844 95.960938 C 463.308594 96.039062 463.292969 96.121094 463.292969 96.203125 L 463.292969 102.726562 C 463.292969 102.890625 463.355469 103.046875 463.46875 103.164062 L 469.613281 109.417969 C 469.667969 109.480469 469.738281 109.53125 469.816406 109.566406 C 469.890625 109.597656 469.972656 109.617188 470.058594 109.621094 C 470.140625 109.625 470.226562 109.609375 470.304688 109.578125 C 470.382812 109.550781 470.453125 109.503906 470.515625 109.449219 C 470.578125 109.390625 470.625 109.320312 470.660156 109.246094 C 470.695312 109.167969 470.714844 109.085938 470.71875 109 C 470.71875 108.917969 470.707031 108.832031 470.675781 108.753906 C 470.644531 108.675781 470.601562 108.605469 470.542969 108.542969 Z M 464.539062 102.511719 "/>
<path style=" stroke:none;fill-rule:nonzero;fill:rgb(100%,100%,100%);fill-opacity:1;" d="M 502.035156 127.4375 L 394.921875 127.4375 L 394.921875 137.328125 L 502.035156 137.328125 Z M 502.035156 127.4375 "/>
<path style=" stroke:none;fill-rule:nonzero;fill:rgb(32.54902%,45.490196%,71.764706%);fill-opacity:1;" d="M 404.855469 127.4375 L 394.96875 127.4375 L 394.96875 137.328125 L 404.855469 137.328125 Z M 404.855469 127.4375 "/>
<path style=" stroke:none;fill-rule:nonzero;fill:rgb(32.54902%,45.490196%,71.764706%);fill-opacity:1;" d="M 457.589844 127.4375 L 437.8125 127.4375 L 437.8125 137.328125 L 457.589844 137.328125 Z M 457.589844 127.4375 "/>
<path style=" stroke:none;fill-rule:nonzero;fill:rgb(32.54902%,45.490196%,71.764706%);fill-opacity:1;" d="M 502.902344 127.4375 L 493.011719 127.4375 L 493.011719 137.328125 L 502.902344 137.328125 Z M 502.902344 127.4375 "/>
<path style=" stroke:none;fill-rule:nonzero;fill:rgb(100%,100%,100%);fill-opacity:1;" d="M 502.40625 142.914062 L 395.292969 142.914062 L 395.292969 152.804688 L 502.40625 152.804688 Z M 502.40625 142.914062 "/>
<path style=" stroke:none;fill-rule:nonzero;fill:rgb(32.54902%,45.490196%,71.764706%);fill-opacity:1;" d="M 457.589844 142.914062 L 437.8125 142.914062 L 437.8125 152.804688 L 457.589844 152.804688 Z M 457.589844 142.914062 "/>
<path style=" stroke:none;fill-rule:nonzero;fill:rgb(32.54902%,45.490196%,71.764706%);fill-opacity:1;" d="M 404.855469 142.914062 L 394.96875 142.914062 L 394.96875 152.804688 L 404.855469 152.804688 Z M 404.855469 142.914062 "/>
<path style=" stroke:none;fill-rule:nonzero;fill:rgb(32.54902%,45.490196%,71.764706%);fill-opacity:1;" d="M 502.902344 142.914062 L 493.011719 142.914062 L 493.011719 152.804688 L 502.902344 152.804688 Z M 502.902344 142.914062 "/>
<path style=" stroke:none;fill-rule:nonzero;fill:rgb(100%,100%,100%);fill-opacity:1;" d="M 502.222656 157.96875 L 395.105469 157.96875 L 395.105469 167.859375 L 502.222656 167.859375 Z M 502.222656 157.96875 "/>
<path style=" stroke:none;fill-rule:nonzero;fill:rgb(32.54902%,45.490196%,71.764706%);fill-opacity:1;" d="M 457.589844 157.96875 L 437.8125 157.96875 L 437.8125 167.859375 L 457.589844 167.859375 Z M 457.589844 157.96875 "/>
<path style=" stroke:none;fill-rule:nonzero;fill:rgb(32.54902%,45.490196%,71.764706%);fill-opacity:1;" d="M 404.855469 157.96875 L 394.96875 157.96875 L 394.96875 167.859375 L 404.855469 167.859375 Z M 404.855469 157.96875 "/>
<path style=" stroke:none;fill-rule:nonzero;fill:rgb(32.54902%,45.490196%,71.764706%);fill-opacity:1;" d="M 502.902344 157.96875 L 493.011719 157.96875 L 493.011719 167.859375 L 502.902344 167.859375 Z M 502.902344 157.96875 "/>
<path style=" stroke:none;fill-rule:nonzero;fill:rgb(92.156863%,95.686275%,98.431373%);fill-opacity:1;" d="M 253.800781 355.710938 C 283.398438 355.710938 307.390625 353.371094 307.390625 350.480469 C 307.390625 347.59375 283.398438 345.253906 253.800781 345.253906 C 224.203125 345.253906 200.210938 347.59375 200.210938 350.480469 C 200.210938 353.371094 224.203125 355.710938 253.800781 355.710938 Z M 253.800781 355.710938 "/>
<path style=" stroke:none;fill-rule:nonzero;fill:rgb(99.215686%,69.803922%,54.901961%);fill-opacity:1;" d="M 253.089844 112.308594 C 252.933594 118.453125 264.667969 122.359375 264.667969 122.359375 C 264.667969 122.359375 269.921875 116.347656 268.765625 115.703125 C 268.3125 115.449219 268.160156 114.507812 268.152344 113.464844 C 268.15625 112.53125 268.222656 111.59375 268.347656 110.667969 C 268.402344 110.238281 268.449219 109.960938 268.449219 109.960938 C 268.449219 109.960938 266.839844 108.09375 264.769531 105.859375 C 261.164062 101.953125 256.1875 96.929688 256.09375 98.839844 C 256.078125 98.960938 256.078125 99.082031 256.09375 99.203125 C 256.839844 103.566406 253.089844 112.308594 253.089844 112.308594 Z M 253.089844 112.308594 "/>
<path style=" stroke:none;fill-rule:nonzero;fill:rgb(94.509804%,63.921569%,42.352941%);fill-opacity:1;" d="M 257.425781 103.566406 C 257.425781 103.566406 257.9375 104.375 258.777344 105.484375 C 260.554688 107.84375 264.226562 112.160156 268.097656 113.773438 C 268.199219 112.570312 268.402344 111.105469 268.476562 110.398438 C 268.753906 110.398438 269.03125 110.363281 269.296875 110.285156 C 268.523438 108.957031 267.617188 107.707031 266.597656 106.558594 L 264.21875 105.785156 Z M 257.425781 103.566406 "/>
<path style=" stroke:none;fill-rule:nonzero;fill:rgb(99.215686%,69.803922%,54.901961%);fill-opacity:1;" d="M 256 98.90625 C 256.929688 101.1875 257.863281 102.855469 258.078125 103.511719 C 258.414062 104.214844 258.855469 104.871094 259.382812 105.449219 C 261.246094 107.648438 264.757812 110.601562 268.347656 110.667969 C 268.746094 110.675781 269.140625 110.644531 269.53125 110.574219 C 270.390625 110.492188 271.21875 110.210938 271.953125 109.753906 C 272.683594 109.292969 273.300781 108.671875 273.753906 107.9375 C 281.835938 93.75 277.003906 81.632812 277.003906 81.632812 C 277.003906 81.632812 256.988281 74.976562 253.539062 80.933594 C 251.105469 85.117188 253.828125 93.542969 256 98.90625 Z M 256 98.90625 "/>
<path style=" stroke:none;fill-rule:nonzero;fill:rgb(1.176471%,20.392157%,41.568627%);fill-opacity:1;" d="M 276.996094 81.640625 C 276.996094 81.640625 278.859375 81.640625 279.511719 78.070312 C 280.164062 74.5 279.25 73.539062 279.25 73.539062 C 278.078125 70.382812 275.949219 67.671875 273.15625 65.785156 C 265.570312 60.804688 256.707031 64.953125 256.15625 65.226562 C 246.921875 69.289062 244.925781 73.613281 244.453125 76.1875 C 242.746094 85.507812 256.035156 98.363281 255.449219 97.515625 C 255.449219 97.515625 255.710938 90.261719 257.3125 89.378906 C 258.917969 88.492188 260.230469 90.832031 260.230469 90.832031 L 263.472656 91.570312 C 263.472656 91.570312 259 80.625 264.972656 80.492188 C 270.949219 80.363281 273.558594 82.125 276.996094 81.640625 Z M 276.996094 81.640625 "/>
<path style=" stroke:none;fill-rule:nonzero;fill:rgb(99.215686%,69.803922%,54.901961%);fill-opacity:1;" d="M 260.304688 87.941406 C 260.136719 84.734375 254.425781 83.28125 254.65625 86.617188 C 254.890625 89.957031 257.582031 93.3125 258.925781 93.3125 C 260.269531 93.3125 260.433594 90.382812 260.304688 87.941406 Z M 260.304688 87.941406 "/>
<path style=" stroke:none;fill-rule:nonzero;fill:rgb(99.215686%,69.803922%,54.901961%);fill-opacity:1;" d="M 205 208.902344 C 205 208.902344 199.546875 218.222656 198.066406 218.617188 C 196.585938 219.007812 193.40625 215.882812 193.40625 215.882812 C 193.40625 215.882812 191.066406 222.027344 189.203125 220.9375 C 187.339844 219.847656 197.945312 203.832031 197.945312 203.832031 Z M 205 208.902344 "/>
<path style=" stroke:none;fill-rule:nonzero;fill:rgb(46.27451%,61.176471%,81.568627%);fill-opacity:1;" d="M 286.410156 338.1875 C 286.410156 338.1875 287.054688 341.589844 286.96875 341.652344 C 286.886719 341.71875 276.234375 343.359375 276.53125 340.648438 C 276.773438 338.449219 277.128906 336.050781 277.128906 336.050781 Z M 286.410156 338.1875 "/>
<path style=" stroke:none;fill-rule:nonzero;fill:rgb(1.176471%,20.392157%,41.568627%);fill-opacity:1;" d="M 247.601562 349.4375 C 262.710938 357.378906 270.816406 355.03125 270.816406 355.03125 L 270.378906 356.617188 C 260.574219 359.550781 247.703125 351.527344 247.609375 351.46875 L 246.941406 351.851562 L 239.625 349.828125 L 240.351562 347.183594 L 245.410156 348.570312 C 246.171875 348.777344 246.90625 349.066406 247.601562 349.429688 "/>
<path style=" stroke:none;fill-rule:nonzero;fill:rgb(1.176471%,20.392157%,41.568627%);fill-opacity:1;" d="M 270.816406 355.039062 C 270.929688 354.003906 269.691406 353.019531 269.691406 353.019531 C 269.691406 353.019531 261.300781 350.566406 259.585938 346.808594 C 258.714844 344.722656 257.253906 342.933594 255.382812 341.664062 L 254.042969 342.429688 C 245.652344 347.089844 243.296875 340.5625 243.296875 340.5625 C 240.5 343.097656 240.871094 347.285156 240.871094 347.292969 L 245.410156 348.542969 C 246.171875 348.75 246.90625 349.035156 247.601562 349.402344 C 262.710938 357.34375 270.816406 354.992188 270.816406 354.992188 Z M 270.816406 355.039062 "/>
<path style=" stroke:none;fill-rule:nonzero;fill:rgb(91.764706%,98.039216%,99.607843%);fill-opacity:1;" d="M 255.703125 344.609375 C 255.632812 344.589844 255.566406 344.554688 255.511719 344.511719 C 255.457031 344.464844 255.410156 344.410156 255.375 344.347656 C 255.304688 344.222656 255.285156 344.074219 255.324219 343.933594 C 255.363281 343.792969 255.453125 343.675781 255.578125 343.601562 L 256.921875 342.839844 C 257.046875 342.769531 257.195312 342.75 257.332031 342.789062 C 257.46875 342.828125 257.585938 342.917969 257.65625 343.042969 C 257.726562 343.167969 257.746094 343.320312 257.707031 343.457031 C 257.671875 343.597656 257.578125 343.71875 257.453125 343.789062 L 256.109375 344.554688 C 256.050781 344.589844 255.980469 344.613281 255.910156 344.621094 C 255.839844 344.632812 255.769531 344.628906 255.703125 344.609375 Z M 255.703125 344.609375 "/>
<path style=" stroke:none;fill-rule:nonzero;fill:rgb(91.764706%,98.039216%,99.607843%);fill-opacity:1;" d="M 256.828125 346.621094 C 256.757812 346.601562 256.695312 346.570312 256.640625 346.527344 C 256.582031 346.480469 256.535156 346.425781 256.503906 346.363281 C 256.433594 346.234375 256.414062 346.085938 256.453125 345.945312 C 256.488281 345.808594 256.582031 345.6875 256.707031 345.617188 L 258.402344 344.683594 C 258.527344 344.613281 258.675781 344.59375 258.8125 344.632812 C 258.953125 344.671875 259.070312 344.765625 259.140625 344.886719 C 259.210938 345.015625 259.230469 345.164062 259.191406 345.304688 C 259.152344 345.445312 259.058594 345.5625 258.933594 345.632812 L 257.238281 346.566406 C 257.175781 346.601562 257.109375 346.625 257.039062 346.636719 C 256.96875 346.644531 256.898438 346.640625 256.828125 346.621094 Z M 256.828125 346.621094 "/>
<path style=" stroke:none;fill-rule:nonzero;fill:rgb(1.176471%,20.392157%,41.568627%);fill-opacity:1;" d="M 280.222656 344.777344 C 295.328125 352.71875 303.4375 350.371094 303.4375 350.371094 L 303 351.957031 C 293.195312 354.890625 280.324219 346.863281 280.230469 346.808594 L 279.558594 347.191406 L 272.242188 345.167969 L 272.972656 342.523438 L 278.03125 343.910156 C 278.789062 344.117188 279.523438 344.40625 280.222656 344.769531 "/>
<path style=" stroke:none;fill-rule:nonzero;fill:rgb(1.176471%,20.392157%,41.568627%);fill-opacity:1;" d="M 303.4375 350.378906 C 303.550781 349.34375 302.308594 348.355469 302.308594 348.355469 C 302.308594 348.355469 293.921875 345.90625 292.207031 342.148438 C 291.335938 340.0625 289.875 338.273438 288.003906 337.003906 L 286.660156 337.765625 C 278.273438 342.429688 275.917969 335.902344 275.917969 335.902344 C 273.121094 338.4375 273.492188 342.625 273.492188 342.632812 L 278.03125 343.882812 C 278.789062 344.089844 279.523438 344.375 280.222656 344.742188 C 295.328125 352.683594 303.4375 350.332031 303.4375 350.332031 Z M 303.4375 350.378906 "/>
<path style=" stroke:none;fill-rule:nonzero;fill:rgb(91.764706%,98.039216%,99.607843%);fill-opacity:1;" d="M 288.320312 339.949219 C 288.25 339.929688 288.1875 339.894531 288.128906 339.851562 C 288.074219 339.804688 288.027344 339.75 287.996094 339.6875 C 287.921875 339.5625 287.90625 339.414062 287.945312 339.273438 C 287.980469 339.132812 288.074219 339.015625 288.199219 338.941406 L 289.542969 338.175781 C 289.667969 338.109375 289.8125 338.089844 289.953125 338.128906 C 290.089844 338.167969 290.207031 338.257812 290.277344 338.382812 C 290.347656 338.507812 290.367188 338.65625 290.328125 338.796875 C 290.289062 338.9375 290.199219 339.054688 290.074219 339.128906 L 288.730469 339.890625 C 288.667969 339.929688 288.601562 339.953125 288.53125 339.960938 C 288.460938 339.972656 288.390625 339.96875 288.320312 339.949219 Z M 288.320312 339.949219 "/>
<path style=" stroke:none;fill-rule:nonzero;fill:rgb(91.764706%,98.039216%,99.607843%);fill-opacity:1;" d="M 289.449219 341.960938 C 289.378906 341.941406 289.316406 341.910156 289.257812 341.863281 C 289.203125 341.820312 289.15625 341.765625 289.121094 341.703125 C 289.050781 341.574219 289.03125 341.425781 289.070312 341.285156 C 289.109375 341.148438 289.203125 341.027344 289.328125 340.957031 L 291.023438 340.023438 C 291.148438 339.953125 291.296875 339.933594 291.433594 339.972656 C 291.570312 340.011719 291.6875 340.105469 291.757812 340.226562 C 291.832031 340.355469 291.847656 340.503906 291.808594 340.644531 C 291.773438 340.78125 291.679688 340.902344 291.554688 340.972656 L 289.859375 341.90625 C 289.796875 341.941406 289.730469 341.964844 289.660156 341.976562 C 289.589844 341.984375 289.515625 341.980469 289.449219 341.960938 Z M 289.449219 341.960938 "/>
<path style=" stroke:none;fill-rule:nonzero;fill:rgb(46.27451%,61.176471%,81.568627%);fill-opacity:1;" d="M 254.265625 337.832031 C 254.265625 337.832031 254.199219 343.425781 254.105469 343.511719 C 254.015625 343.59375 243.855469 345.664062 244.097656 341.328125 C 244.308594 338.773438 244.652344 336.230469 245.132812 333.710938 Z M 254.265625 337.832031 "/>
<path style=" stroke:none;fill-rule:nonzero;fill:rgb(1.176471%,20.392157%,41.568627%);fill-opacity:1;" d="M 287.816406 198.648438 C 287.816406 198.648438 296.597656 236.269531 298.609375 247.726562 C 300.324219 257.476562 301.683594 267.640625 300.894531 274.667969 C 299.90625 283.382812 286.203125 337.945312 286.203125 337.945312 L 275.019531 336.078125 C 275.019531 336.078125 284.21875 281.082031 282.289062 271.703125 C 280.855469 264.757812 268.3125 218.570312 266.445312 220.964844 C 264.582031 223.359375 262.261719 264.496094 260.855469 271.304688 C 259.449219 278.109375 254.527344 342.398438 254.527344 342.398438 L 243.34375 340.535156 C 243.34375 340.535156 241.691406 285.230469 242.570312 272.421875 C 242.90625 267.535156 236.613281 213.859375 244.515625 192.253906 C 248.675781 180.9375 287.816406 198.648438 287.816406 198.648438 Z M 287.816406 198.648438 "/>
<path style=" stroke:none;fill-rule:nonzero;fill:rgb(100%,100%,100%);fill-opacity:1;" d="M 234.5625 129.164062 L 253.117188 121.277344 L 268.246094 120.34375 L 270.109375 118.480469 L 271.972656 115.683594 L 291.546875 134.4375 L 286.53125 172.109375 C 284.835938 178.859375 287.84375 191.964844 288.179688 198.945312 C 288.449219 204.484375 286.679688 206.972656 286.632812 207.039062 L 245.28125 201.054688 C 245.28125 201.054688 243.417969 187.683594 243.304688 180.460938 Z M 234.5625 129.164062 "/>
<path style=" stroke:none;fill-rule:nonzero;fill:rgb(96.470588%,74.117647%,58.431373%);fill-opacity:1;" d="M 331.621094 150.175781 C 331.621094 150.175781 327.546875 153.734375 325.945312 154.539062 C 324.339844 155.339844 326.746094 158.5625 326.746094 158.5625 C 329.472656 157.707031 332.058594 156.449219 334.417969 154.835938 C 340.941406 150.175781 331.621094 150.175781 331.621094 150.175781 Z M 331.621094 150.175781 "/>
<path style=" stroke:none;fill-rule:nonzero;fill:rgb(1.176471%,20.392157%,41.568627%);fill-opacity:1;" d="M 255.199219 221.953125 C 258.449219 219.070312 256.457031 216.078125 258.925781 195.851562 C 259.699219 189.53125 260.144531 188.46875 260.789062 181.867188 C 260.996094 179.734375 261.796875 171.1875 262.242188 168.101562 C 262.242188 167.847656 262.503906 166.347656 262.765625 164.296875 C 262.820312 163.820312 262.886719 163.363281 262.941406 162.898438 C 263.59375 157.492188 263.984375 152.644531 264.292969 149.316406 C 265.273438 138.867188 258.871094 127.550781 253.957031 120.558594 C 252.324219 118.214844 250.558594 115.964844 248.675781 113.820312 C 247.816406 114.144531 247.890625 114.109375 245.746094 114.957031 C 240.996094 116.820312 229.773438 120.140625 228.515625 121.042969 C 226.929688 122.179688 226.828125 123.617188 225.476562 131.800781 C 223.613281 142.941406 221.171875 153.988281 219.699219 165.171875 C 219.425781 167.519531 218.894531 169.824219 218.113281 172.054688 C 216.789062 175.714844 214.832031 179.113281 212.324219 182.09375 C 208.039062 187.414062 201.832031 195.722656 193.816406 206.421875 L 199.632812 210.152344 L 204.394531 213.878906 C 215.179688 202.859375 224.097656 190.160156 230.808594 176.277344 C 231.5625 172.863281 234.535156 167.195312 235.570312 163.578125 C 237.304688 157.222656 237.0625 153.417969 239.054688 147.917969 L 239.054688 148.066406 C 240.304688 152.988281 240.816406 171.148438 240.816406 171.148438 C 239.1875 181.097656 236.828125 190.910156 233.761719 200.511719 C 230.816406 209.582031 229.808594 213.515625 231.898438 217.292969 C 235.8125 224.386719 249.550781 226.96875 255.199219 221.953125 Z M 255.199219 221.953125 "/>
<path style=" stroke:none;fill-rule:nonzero;fill:rgb(96.470588%,74.117647%,58.431373%);fill-opacity:1;" d="M 331.042969 147.324219 C 330.457031 147.785156 329.832031 148.195312 329.179688 148.554688 C 327.613281 149.410156 324.628906 151.488281 325.449219 154.492188 C 326.511719 158.519531 338.050781 154.050781 338.050781 154.050781 C 338.050781 154.050781 343.464844 153.054688 343.902344 151.253906 C 344.34375 149.457031 337.136719 151.648438 336.382812 150.519531 C 336.167969 150.152344 336.074219 149.730469 336.105469 149.308594 C 336.128906 148.691406 336.316406 148.09375 336.640625 147.570312 C 336.96875 147.046875 337.425781 146.617188 337.96875 146.324219 C 339.300781 145.589844 342.75 143.527344 342.75 143.527344 L 345.953125 142.726562 C 346.542969 142.445312 347.425781 141.953125 347.277344 141.738281 C 347.277344 141.738281 347.941406 140.675781 344.109375 141.09375 C 340.277344 141.515625 332.785156 145.953125 331.042969 147.324219 Z M 331.042969 147.324219 "/>
<path style=" stroke:none;fill-rule:nonzero;fill:rgb(16.078431%,25.490196%,54.901961%);fill-opacity:1;" d="M 339.078125 153.734375 C 337.074219 151.992188 335.785156 149 333.773438 147.210938 C 339.46875 143.6875 344.445312 141.421875 350.140625 137.886719 C 352.003906 140.136719 354.957031 143.097656 355.3125 143.640625 C 349.496094 147.285156 344.9375 150.175781 339.078125 153.734375 Z M 339.078125 153.734375 "/>
<path style=" stroke:none;fill-rule:nonzero;fill:rgb(96.470588%,74.117647%,58.431373%);fill-opacity:1;" d="M 336.988281 154.378906 C 337.351562 154.332031 337.703125 154.222656 338.03125 154.0625 C 339.070312 153.71875 340.128906 153.445312 341.203125 153.25 C 341.847656 152.988281 342.46875 152.679688 343.066406 152.320312 C 344.128906 151.84375 344.585938 150.546875 344.15625 150.398438 C 343.726562 150.25 343.289062 150.089844 341.695312 150.492188 C 340.101562 150.890625 338.898438 151.421875 337.632812 150.984375 C 336.363281 150.546875 336.121094 150.566406 336.214844 149.503906 C 336.488281 147.671875 337.121094 145.914062 338.078125 144.332031 C 339.011719 143.191406 336.90625 144.890625 335.152344 145.71875 C 333.402344 146.546875 333.523438 147.582031 332.785156 148.273438 C 332.050781 148.964844 336.988281 154.378906 336.988281 154.378906 Z M 336.988281 154.378906 "/>
<path style=" stroke:none;fill-rule:nonzero;fill:rgb(1.176471%,20.392157%,41.568627%);fill-opacity:1;" d="M 284.089844 202.378906 C 284.144531 202.609375 285.898438 211.457031 285.953125 211.699219 C 288.050781 220.5625 288.75 224.75 288.75 224.75 L 293.214844 221.738281 L 296.726562 218.492188 C 297.125 218.128906 297.40625 217.660156 297.546875 217.140625 C 297.6875 216.621094 297.679688 216.070312 297.519531 215.558594 C 295.570312 209.273438 288.945312 187.015625 287.734375 171.355469 C 287.351562 166.441406 288.785156 161.808594 289.597656 157.371094 C 290.304688 159.339844 291.097656 161.492188 291.890625 163.589844 L 294.761719 170.496094 C 295.121094 171.367188 295.667969 172.152344 296.355469 172.800781 C 297.042969 173.445312 297.863281 173.9375 298.757812 174.246094 C 299.648438 174.550781 300.597656 174.664062 301.539062 174.574219 C 302.480469 174.484375 303.390625 174.199219 304.210938 173.730469 L 333.859375 156.875 L 330.566406 146.175781 C 323.4375 150.175781 315.972656 153.988281 309.132812 158.519531 C 306.660156 160.167969 304.949219 162.136719 304.191406 160.167969 L 293.445312 128.640625 C 292.574219 126.070312 290.738281 123.9375 288.328125 122.683594 C 287.324219 122.164062 286.269531 121.632812 285.375 121.210938 C 282.699219 119.933594 279.328125 118.367188 276.324219 116.980469 L 272.402344 115.171875 L 272.308594 115.246094 C 272.308594 115.246094 273.988281 120.839844 276.148438 134.738281 L 276.371094 136.164062 L 276.371094 136.332031 C 276.417969 136.65625 276.476562 136.984375 276.519531 137.3125 L 276.519531 137.421875 C 276.550781 137.644531 276.585938 137.871094 276.625 138.09375 C 276.703125 138.640625 276.785156 139.199219 276.867188 139.773438 C 277.796875 146.546875 279.1875 158.078125 280.492188 169.722656 C 281.515625 178.894531 282.355469 188.75 283.054688 195.824219 "/>
<path style=" stroke:none;fill-rule:nonzero;fill:rgb(100%,100%,100%);fill-opacity:1;" d="M 248.394531 113.882812 L 253.195312 110.96875 C 253.195312 110.96875 253.324219 113.597656 265.214844 120.476562 L 261.84375 129.984375 Z M 248.394531 113.882812 "/>
<path style=" stroke:none;fill-rule:nonzero;fill:rgb(100%,100%,100%);fill-opacity:1;" d="M 268.375 112.300781 C 268.375 112.300781 268.191406 115.097656 265.214844 120.484375 L 271.804688 129.078125 L 272.289062 115.144531 Z M 268.375 112.300781 "/>
<path style=" stroke:none;fill-rule:nonzero;fill:rgb(89.803922%,18.823529%,15.686275%);fill-opacity:1;" d="M 265.199219 120.484375 C 265.199219 120.484375 263.921875 126.078125 264.378906 127.617188 C 264.378906 127.617188 267.171875 128.734375 269.207031 127.335938 C 268.242188 124.851562 266.890625 122.539062 265.199219 120.484375 Z M 265.199219 120.484375 "/>
<path style=" stroke:none;fill-rule:nonzero;fill:rgb(89.803922%,18.823529%,15.686275%);fill-opacity:1;" d="M 268.058594 126.871094 C 268.058594 126.871094 274.769531 144.777344 274.769531 164.101562 C 274.769531 184.691406 273.835938 192.578125 273.835938 192.578125 L 270.109375 198.648438 L 268.246094 191.527344 C 268.246094 191.527344 270.175781 164.929688 266.746094 139.425781 C 266.121094 134.765625 265.199219 126.050781 265.199219 126.050781 Z M 268.058594 126.871094 "/>
</g>
</svg>
